<?xml version="1.0" encoding="UTF-8"?><svg id="Layer_2" xmlns="http://www.w3.org/2000/svg" viewBox="0 0 30.78 39.35"><defs><style>.cls-1{fill-rule:evenodd;}</style></defs><g id="Layer_1-2"><path class="cls-1" d="m1.81,9.47c-.18-.11-.29-.22-.29-.39,0-.47.45-1.23,1.28-2.05C5.29,4.54,11.05,1.32,17.01,1.32c3.02,0,5.47.75,7.1,2.14,1.41,1.21,2.19,2.91,2.19,4.81,0,2.92-1.38,4.93-2.22,6.15-.42.62-.68.98-.68,1.39,0,.33.15.6.41.86.25.26.61.52,1.05.85,1.74,1.28,4.59,3.39,4.59,7.72,0,4.93-2.61,7.92-4.8,9.58-2.7,2.04-6.3,3.2-9.86,3.2-8.88,0-13.48-4.94-13.48-9.79,0-1.43.53-2.9,1.52-4.01.98-1.11,2.4-1.85,4.19-1.85,1,0,2.26.23,3.26.9,1,.67,1.75,1.76,1.75,3.53v.15c-.09-.2-.22-.42-.39-.63-.36-.45-.93-.84-1.78-.84-.96,0-1.77.78-1.77,1.72,0,.17-.02.28-.04.34-.01.02-.01.03-.02.03-.23,0-.51-.16-.73-.48-.23-.33-.39-.79-.39-1.4,0-.12.01-.25.02-.38l.03-.28-.2.22c-.9,1-1.23,1.9-1.23,2.68,0,1.27.86,2.18,1.37,2.66.1.09.21.2.29.28.04.04.09.09.11.12.01.02.02.03.03.04h0c-.01.05-.1.18-.34.27-.26.11-.66.2-1.25.2-.21,0-.42-.01-.67-.03l-.23-.02.14.17c1.71,2.03,3.58,2.58,5.21,2.58,1.21,0,2.27-.3,3.04-.51.33-.1.7-.23.89-.23.09,0,.12.02.13.04.02.02.03.08.03.15,0,.24-.14.66-.37,1.11-.23.45-.55.9-.91,1.23l-.22.2.29-.03c4.97-.64,6.62-3.52,7.45-5.01.13-.25.26-.48.38-.64.11-.16.23-.25.25-.24.04,0,.12.04.21.16.25.36.45,1.27.45,2.22,0,.41-.03.83-.12,1.22l-.07.29.22-.21c1.88-1.74,2.39-3.56,2.39-5.08,0-1.16-.3-2.15-.51-2.79-.12-.36-.21-.67-.21-.81,0-.13.02-.2.04-.23.02-.03.07-.05.14-.08.79,0,1.74.28,2.87.83l.22.11-.1-.23c-1.53-3.58-4.94-5.13-8.26-5.96-1.66-.42-3.31-.66-4.69-.91-1.01-.17-1.88-.35-2.51-.58-.11-.04-.21-.1-.31-.14,1.9-.24,4.19-1.57,6.22-2.88.76-.49,1.36-.99,1.84-1.38.25-.21.48-.39.67-.53.2-.14.36-.22.43-.22.07,0,.13.03.18.1.18.21.29.76.29,1.37,0,.49-.07,1.01-.18,1.43l-.07.24.21-.13c1.62-1.04,2.39-2.62,2.39-4.08s-.83-2.4-1.35-3c-.08-.09-.17-.2-.25-.29-.07-.08-.11-.15-.12-.17.01-.03.05-.12.14-.17.34-.25.91-.41,1.59-.41.34,0,.71.04,1.08.13l.25.05-.16-.21c-1.39-1.78-2.99-2.3-4.41-2.3-1.12,0-2.14.31-2.88.55-.36.12-.86.27-1.08.27h-.05c0-.26.2-.7.55-1.16.37-.48.9-.99,1.6-1.4l.25-.15-.27-.05c-.13-.01-.26-.01-.39-.01-2.87,0-6.55,2.07-9.27,3.49-1.69.87-5.27,2.94-6.33,2.3Zm11.35,19.11c1.72,0,3.15-.52,4.26-1.54,1.18-1.08,1.86-2.69,1.86-4.42,0-.83-.26-1.52-.74-2.05,2.56.61,5.22,1.92,6.7,3.91-.66-.22-1.13-.27-1.6-.27-.48.01-.86.5-.86,1.08,0,.3.11.64.25,1.06.22.65.49,1.5.49,2.52,0,.93-.23,2.01-.97,3.2-.02-.97-.28-1.74-.62-2.15-.26-.31-.54-.4-.73-.4-.3,0-.54.15-.74.38-.2.23-.37.54-.56.9-.71,1.26-1.81,3.28-5.29,4.32.31-.54.48-1.1.48-1.54,0-.17-.02-.34-.09-.47-.11-.26-.34-.42-.6-.42h-.01c-.38.01-.83.13-1.34.28-.8.23-1.77.5-2.83.5s-2.31-.29-3.55-1.23c.43-.07.81-.22,1.09-.46.23-.2.37-.45.37-.72-.01-.4-.33-.68-.68-1.02-.53-.5-1.16-1.09-1.16-2.09,0-.28.05-.61.17-.98.11.31.28.6.49.84.33.35.72.56,1.09.56.4.01.63-.18.74-.42.11-.24.1-.51.1-.73,0-.25.11-.48.29-.65s.43-.28.68-.28c.59,0,1.02.33,1.34.81.3.49.47,1.13.47,1.74,0,.38-.07.74-.18,1.03l-.13.33.27-.22c.52-.4.93-.98,1.12-1.4.15-.02.29-.01.43-.01Zm-2.8-11.77c.53-.53,1.64-1.29,2.48-1.82.81-.52,1.54-.99,2.07-1.46s.88-.94.88-1.49c0-.43-.16-.83-.48-1.14-.56-.55-1.56-.81-2.81-.96-1.25-.14-2.75-.14-4.3-.14h-.42c-1.28,0-2.3-.02-3.12-.05,1.13-.45,2.44-1.14,3.88-1.9,2.31-1.24,4.89-2.62,7.31-3.23-.55.63-.92,1.36-.92,1.98,0,.15.04.31.16.45.12.13.3.21.55.21.43,0,.91-.16,1.47-.35.76-.25,1.63-.53,2.6-.53.84,0,1.75.22,2.72.86-.64.04-1.16.23-1.5.49-.36.27-.45.59-.45.8,0,.36.25.62.56.98.5.56,1.15,1.29,1.15,2.48,0,.87-.33,1.78-.83,2.48v-.15c0-.6-.13-1.28-.47-1.66-.2-.23-.47-.36-.76-.35-.51,0-.94.39-1.6.92-.47.38-1.03.87-1.76,1.32-3.05,1.92-4.69,2.67-5.85,2.76-.45.04-1.09.03-.56-.49Zm15.29-.36c-.33-.24-.71-.52-.87-.68.09-.16.25-.4.4-.61.85-1.23,2.44-3.56,2.44-6.89,0-1.91-.7-3.99-2.38-5.57-1.68-1.6-4.34-2.7-8.24-2.7s-7.86,1.22-11.47,3.34c-1.62.96-2.94,1.99-3.88,2.98-.92.99-1.46,1.94-1.47,2.76,0,.39.15.76.43,1.04.52.52,1.46.76,2.65.89,1.19.12,2.64.13,4.2.13h.28c2.41,0,4.11.07,5.2.23.54.08.93.18,1.17.3.25.13.33.25.33.38,0,.05-.07.18-.21.33-.52.52-1.89,1.29-3.12,2.14-.62.42-1.19.87-1.63,1.32-.43.46-.73.92-.73,1.4v.02c.01.61.33,1.11.83,1.49,1.49,1.14,4.58,1.44,6.2,1.74,1,.18,1.53.53,1.81.92.28.39.34.83.34,1.19,0,1.39-.51,2.61-1.43,3.44-.83.75-1.81,1.24-3.25,1.25h-.17c.03-.27.05-.54.05-.81,0-1.63-.64-3-1.73-3.94-1.09-.94-2.62-1.48-4.4-1.48-2.19,0-3.95.91-5.16,2.26-1.23,1.37-1.88,3.15-1.88,4.91,0,2.77,1.28,5.55,3.77,7.63,2.49,2.09,6.19,3.48,11.03,3.48,3.84,0,7.71-1.27,10.64-3.48,2.43-1.82,5.33-5.17,5.33-10.63.01-5.01-3.36-7.48-5.13-8.79Z"/></g></svg>