<svg width="120" height="120" viewBox="0 0 120 120" fill="none" xmlns="http://www.w3.org/2000/svg">
<g clip-path="url(#clip0)">
<path d="M64.826 29.0088C65.8206 29.0088 66.6919 29.3986 67.5125 29.8254C69.8631 31.0465 71.7464 33.4659 72.6879 35.8047C70.8663 35.4255 69.4449 36.4403 68.0681 37.4071C67.1217 38.0723 66.0743 38.6588 64.826 38.6588C63.5463 38.6588 62.319 38.1504 61.4142 37.2456C60.5093 36.3407 60.001 35.1134 60.001 33.8338C60.001 32.5541 60.5093 31.3269 61.4142 30.422C62.319 29.5171 63.5463 29.0088 64.826 29.0088Z" fill="black"/>
<path d="M60 0C93.1369 0 120 26.8631 120 60C120 93.1369 93.1369 120 60 120C26.8631 120 0 93.1372 0 60C0 26.8628 26.8631 0 60 0ZM60 106.557C69.9325 106.572 79.6071 103.395 87.5976 97.4955C82.8071 94.4426 79.1361 89.9183 77.1356 84.6016C75.1352 79.285 74.9132 73.4629 76.503 68.0094C78.0929 62.5558 81.4087 57.7651 85.9529 54.3563C90.497 50.9476 96.0242 49.1047 101.705 49.1044C103.1 49.1044 104.306 49.4311 105.35 49.6409C105.325 49.534 105.298 49.538 105.272 49.538H105.522C105.786 48.2939 105.92 47.026 105.924 45.7543C105.925 42.6454 105.025 39.6028 103.332 36.9953C101.639 34.3878 99.226 32.3275 96.3855 31.0641C91.4824 24.9 85.0949 20.0815 77.8213 17.0599C70.5476 14.0384 62.626 12.9127 54.7986 13.7884C46.9712 14.6641 39.4941 17.5124 33.068 22.0666C26.6419 26.6208 21.4771 32.7318 18.0574 39.8269C14.6378 46.9221 13.0752 54.7692 13.5161 62.6331C13.957 70.497 16.387 78.1203 20.5784 84.7887C24.7698 91.4571 30.5853 96.9524 37.4803 100.76C44.3752 104.567 52.1238 106.562 60 106.557Z" fill="black"/>
</g>
<defs>
<clipPath id="clip0">
<rect width="120" height="120" fill="white"/>
</clipPath>
</defs>
</svg>
