<svg width="800" height="720" viewBox="0 0 800 720" fill="none" xmlns="http://www.w3.org/2000/svg">
<g clip-path="url(#clip0_204_23869)">
<rect width="800" height="720" fill="#F5F5F5"/>
<g style="mix-blend-mode:overlay" filter="url(#filter0_f_204_23869)">
<path d="M842.452 479.021L549.821 460.655C465.404 455.357 389.992 406.055 351.275 330.853C263.161 159.702 402.063 -40.3902 593.219 -17.6742L760.792 2.23924C784.034 5.00122 807.571 3.94985 830.475 -0.873337C938.69 -23.6623 1046.54 39.3499 1079.83 144.81L1086.75 166.739C1137.57 327.741 1010.95 489.597 842.452 479.021Z" fill="#F557B6"/>
</g>
<path d="M577.929 439.127C572.556 496.142 538.945 530.48 496.971 553.176C468.304 568.605 433.658 578.203 389.73 576.903C346.427 575.603 314.028 565.412 287.14 547.956C261.444 531.379 239.05 506.772 235.005 470.12C232.621 449.165 238.757 432.148 247.863 419.644C257.125 406.681 269.221 397.236 286.397 392.876C306.701 387.771 328.059 391.997 341.347 398.956C358.973 408.134 369.271 424.883 366.906 451.631C364.073 437.1 345.978 424.29 330.443 431.861C325.968 434.041 321.18 438.706 319.832 444.671C319.09 447.864 320.145 452.09 317.898 454.403C305.645 452.51 302.069 440.58 302.812 427.062C296.09 434.614 288.469 443.352 288.332 456.889C288.332 470.693 295.64 479.144 303.125 486.41C304.903 488.15 310.277 492.107 310.277 493.962C310.277 497.767 302.675 499.22 298.63 499.793C294.155 500.52 287.14 500.673 282.353 500.08C287.433 507.212 294.292 512.737 301.776 517.689C316.256 527.154 338.806 532.813 363.897 528.014C368.528 527.154 373.922 525.834 379.295 524.381C382.715 523.349 391.528 519.429 394.068 521.915C396.022 523.655 394.225 529.027 393.482 531.379C390.473 539.945 384.669 547.21 379.725 552.621C416.032 548.396 442.608 532.545 460.097 507.805C462.774 504.153 465.315 499.793 468.011 494.994C469.809 492.107 473.815 483.656 477.117 483.503C481.749 483.351 484.152 493.541 485.031 497.767C486.986 507.365 486.673 517.976 485.031 526.408C485.93 526.848 486.81 525.681 487.279 525.242C504.143 509.678 518.798 483.79 511.47 449.757C510.572 445.685 508.93 440.58 507.445 435.781C506.097 432.148 503.107 424.73 505.804 422.11C509.38 418.764 522.081 423.277 525.52 424.29C532.536 426.336 537.304 428.229 542.834 430.695C522.531 381.825 468.304 364.789 406.614 354.312C386.897 350.985 365.695 348.939 349.261 340.641C374.508 337.735 392.876 327.563 412.28 316.053C425.744 308.195 438.739 299.458 451.284 289.573C454.43 287.106 460.547 280.72 464.728 281.294C469.946 282.02 470.552 291.332 470.982 297.144C471.451 303.836 470.552 310.968 469.067 316.34C482.648 308.061 494.45 295.385 496.678 275.615C497.87 264.564 495.486 255.693 491.011 248.274C486.673 241.143 480.713 235.598 476.219 228.772C481.592 220.474 498.925 219.767 511.021 222.367C501.622 209.997 488.158 199.079 468.304 196.479C457.107 195.026 446.653 196.613 436.941 198.946C427.698 201.278 418.866 205.484 409.31 205.351C411.987 188.908 424.083 181.489 435.3 173.344C413.941 173.057 396.628 178.583 381.074 184.548C350.472 196.479 322.978 212.616 293.256 227.166C286.691 230.378 279.382 234.011 270.706 237.204C263.241 239.976 252.494 243.762 243.681 241.716C234.575 239.67 236.666 231.105 241.141 224.126C247.394 214.069 258.317 205.064 267.13 198.219C280.125 188.181 294.448 179.31 310.14 171.738C342.402 155.888 376.012 145.124 421.113 143.078C475.027 140.611 517.137 159.674 533.435 194.433C542.541 213.782 541.349 241.143 534.021 261.352C528.647 276.208 520.733 287.986 512.076 300.069C508.637 304.868 503.713 310.815 505.491 317.66C507.132 324.351 516.532 329.284 522.374 333.51C553.581 355.631 583.166 384.005 577.929 439.127ZM433.052 443.065C449.193 427.349 463.673 385.152 439.345 368.728C477.411 376.127 509.38 392.15 528.784 418.63C521.475 417.292 513.405 412.512 504.299 414.979C491.91 418.325 499.98 436.507 502.657 445.379C504.592 452.09 506.39 459.642 506.39 467.94C506.39 486.849 499.238 498.493 491.91 508.952C492.203 499.22 490.405 490.042 486.81 483.943C484.426 479.871 480.4 475.358 473.991 477.251C471.744 477.806 469.496 479.718 468.011 481.458C462.774 487.576 459.648 495.587 455.173 502.432C441.865 522.202 420.8 536.886 394.674 543.157C398.406 538.492 407.356 517.689 396.921 514.191C390.785 512.317 376.599 517.976 370.912 519.429C362.861 521.475 352.856 523.062 343.594 523.062C322.685 522.928 310.452 515.95 298.493 506.638C307.15 505.338 319.09 502.547 317.292 492.107C316.549 488.436 311.625 484.211 308.791 481.744C305.509 478.704 302.362 475.951 299.685 472.013C293.706 463.141 293.706 453.524 298.493 442.759C300.877 449.604 305.352 457.902 312.973 460.369C317.155 461.822 323.135 461.229 325.225 457.615C327.16 454.117 325.812 451.344 326.417 447.559C327.316 441.478 333.296 435.781 342.109 436.66C358.836 438.4 366.301 461.382 360.614 479.565C365.988 476.219 370.619 469.546 374.058 463.141C399.598 464.575 418.729 457.023 433.052 443.065ZM355.533 316.646C367.043 308.195 380.038 301.217 391.977 292.938C399.755 287.393 414.391 278.522 408.861 264.258C402.588 247.968 371.831 245.655 348.362 245.655C321.786 245.655 294.898 245.789 270.257 244.775C320.145 225.273 359.129 195.16 414.547 181.05C413.179 183.956 407.669 188.755 404.835 194.433C402.451 199.079 399.149 209.289 405.128 212.042C411.401 214.949 422.149 209.997 428.265 208.104C435.593 205.943 442.315 204.05 451.128 203.018C471.294 200.838 483.976 207.09 494.45 214.949C482.804 215.255 468.011 218.448 469.067 229.786C469.496 235.464 478.173 242.443 481.319 246.515C485.325 251.62 489.076 258.006 489.819 266.591C491.011 281.007 484.426 293.664 477.274 301.943C478.173 289.133 475.632 273.149 462.169 274.602C456.951 275.176 451.734 279.975 447.689 283.187C426.643 299.764 403.194 315.48 377.048 326.397C372.124 328.558 366.144 330.756 360.165 332.21C354.654 333.663 347.033 335.556 341.054 332.21C342.695 324.925 349.867 320.852 355.533 316.646ZM518.622 314.027C530.445 297.871 541.935 281.007 548.52 259.325C555.848 235.177 554.324 208.41 545.081 188.468C527.299 150.209 487.122 132.466 432.447 130H420.507C372.124 132.619 335.817 144.703 300.877 162.159C276.822 174.071 252.631 189.481 235.61 209.557C228.595 217.855 217.242 235.464 227.696 246.381C241.883 261.065 284.737 258.293 316.862 258.293C338.357 258.293 362.256 258.159 381.816 261.945C388.108 263.092 395.886 265.291 396.315 269.803C396.921 275.749 383.926 282.881 380.038 285.366C366.73 294.085 354.341 300.356 341.796 310.968C334.625 317.067 324.014 325.365 328.665 338.022C334.175 353.452 358.093 358.977 376.012 362.61C399.462 367.409 431.098 366.548 437.547 386.051C440.517 395.209 438.133 406.241 435.593 413.678C427.522 436.947 409.017 451.344 376.892 451.057C380.175 425.169 371.381 407.12 357.488 395.056C344.043 383.259 322.236 376.127 296.989 378.326C273.54 380.353 257.418 389.817 244.267 403.201C231.429 416.298 222.616 434.175 221.424 457.023H221.111V464.575C224.414 508.665 247.257 536.599 275.63 556.541C304.453 576.75 343.75 588.088 390.785 590H406.184C460.097 587.075 502.208 569.905 533.571 544.61C564.935 519.276 588.97 484.536 591.667 431.708V420.236C590.025 392.15 580.333 372.361 566.889 355.784C553.444 339.054 535.213 327.697 518.622 314.027Z" fill="black"/>
<g style="mix-blend-mode:overlay" filter="url(#filter1_f_204_23869)">
<path d="M479.893 780.078L248.242 988.276C173.073 1055.84 64.4871 1071.17 -26.4476 1027.06C-190.929 947.278 -215.953 723.229 -73.1262 609.125L99.0081 471.608C115.515 458.42 129.766 442.635 141.202 424.87C202.141 330.207 330.418 306.787 420.876 373.809L462.134 404.377C585.541 495.811 594.125 677.411 479.893 780.078Z" fill="#FF5C00"/>
</g>
</g>
<defs>
<filter id="filter0_f_204_23869" x="224.178" y="-119.446" width="973.928" height="698.959" filterUnits="userSpaceOnUse" color-interpolation-filters="sRGB">
<feFlood flood-opacity="0" result="BackgroundImageFix"/>
<feBlend mode="normal" in="SourceGraphic" in2="BackgroundImageFix" result="shape"/>
<feGaussianBlur stdDeviation="50" result="effect1_foregroundBlur_204_23869"/>
</filter>
<filter id="filter1_f_204_23869" x="-266.591" y="235.52" width="926.992" height="916.469" filterUnits="userSpaceOnUse" color-interpolation-filters="sRGB">
<feFlood flood-opacity="0" result="BackgroundImageFix"/>
<feBlend mode="normal" in="SourceGraphic" in2="BackgroundImageFix" result="shape"/>
<feGaussianBlur stdDeviation="50" result="effect1_foregroundBlur_204_23869"/>
</filter>
<clipPath id="clip0_204_23869">
<rect width="800" height="720" fill="white"/>
</clipPath>
</defs>
</svg>
