<svg width="69" height="51" viewBox="0 0 69 51" fill="none" xmlns="http://www.w3.org/2000/svg">
<g clip-path="url(#clip0)">
<path d="M45.3121 29.7402C48.4501 22.7265 54.2398 17.1864 61.0771 13.8304C57.0807 14.2173 53.0579 14.3536 49.0801 15.1077C43.5159 16.1689 38.0526 17.7607 32.7797 19.8417C22.5067 23.917 10.7189 30.0674 4.06048 39.1407C3.88222 39.3839 3.49923 39.17 3.65434 38.8994C6.27412 34.2691 10.8406 31.0123 15.1325 28.0278C20.1486 24.5545 25.5262 21.6042 31.1417 19.2293C36.4394 16.99 41.9403 15.2488 47.5648 14.0499C50.9376 13.3331 54.6256 12.5626 58.264 12.2533C54.5986 11.1797 51.0208 9.80058 47.7424 7.84617C47.4071 7.646 47.6335 7.05484 48.02 7.20258C53.5785 9.34992 58.9728 11.4033 64.9168 12.261C65.8399 12.3931 65.96 13.5237 65.0847 13.8551C56.8013 16.9746 50.7815 22.7946 46.6436 30.5381C46.17 31.4508 44.9101 30.6374 45.3121 29.7402Z" fill="black"/>
</g>
<defs>
<clipPath id="clip0">
<rect width="20" height="67" fill="white" transform="matrix(0.484005 0.875066 0.875066 -0.484005 0.467285 33.3838)"/>
</clipPath>
</defs>
</svg>
