<svg width="40" height="40" viewBox="0 0 40 40" fill="none" xmlns="http://www.w3.org/2000/svg">
<path d="M33.1306 7.28799L33.1306 15.1251C33.1241 15.3798 32.9216 15.5823 32.6669 15.5888C32.4188 15.5888 32.2032 15.3864 32.2032 15.1251L32.2098 8.40478L21.5709 19.0437C21.388 19.2266 21.1006 19.2266 20.9178 19.0437C20.7349 18.8608 20.7349 18.5735 20.9178 18.3906L31.5567 7.75169L24.8298 7.75169C24.5751 7.75822 24.3661 7.54923 24.3661 7.28799C24.3726 7.1639 24.4249 7.04634 24.5098 6.96144C24.5947 6.87654 24.7122 6.82429 24.8363 6.83082L32.6735 6.83082C32.9282 6.82429 33.1372 7.03328 33.1306 7.28799Z" fill="black"/>
<path d="M6.86936 32.712L6.86936 24.8749C6.87589 24.6202 7.07835 24.4177 7.33306 24.4112C7.58124 24.4112 7.79676 24.6136 7.79676 24.8749L7.79023 31.5952L18.4291 20.9563C18.612 20.7734 18.8994 20.7734 19.0822 20.9563C19.2651 21.1392 19.2651 21.4265 19.0822 21.6094L8.44332 32.2483L15.1702 32.2483C15.4249 32.2418 15.6339 32.4508 15.6339 32.712C15.6274 32.8361 15.5751 32.9537 15.4902 33.0386C15.4053 33.1235 15.2878 33.1757 15.1637 33.1692L7.32653 33.1692C7.07182 33.1757 6.86283 32.9667 6.86936 32.712Z" fill="black"/>
</svg>
