<svg width="80" height="80" viewBox="0 0 80 80" fill="none" xmlns="http://www.w3.org/2000/svg">
<path d="M41.7387 37.4242L41.7387 21.75C41.7517 21.2406 42.1567 20.8357 42.6661 20.8227C43.1624 20.8227 43.5935 21.2276 43.5935 21.75L43.5804 35.1906L64.8581 13.913C65.2238 13.5472 65.7985 13.5472 66.1643 13.913C66.53 14.2787 66.53 14.8534 66.1643 15.2191L44.8866 36.4968L58.3402 36.4968C58.8497 36.4838 59.2676 36.9017 59.2676 37.4242C59.2546 37.6724 59.1501 37.9075 58.9803 38.0773C58.8105 38.2471 58.5754 38.3516 58.3272 38.3385L42.653 38.3385C42.1436 38.3516 41.7256 37.9336 41.7387 37.4242Z" fill="white"/>
<path d="M38.2613 42.5758L38.2613 58.25C38.2483 58.7594 37.8433 59.1643 37.3339 59.1773C36.8376 59.1773 36.4065 58.7724 36.4065 58.25L36.4196 44.8094L15.1419 66.087C14.7762 66.4528 14.2015 66.4528 13.8357 66.087C13.47 65.7213 13.47 65.1466 13.8357 64.7809L35.1134 43.5032L21.6598 43.5032C21.1503 43.5162 20.7324 43.0983 20.7324 42.5758C20.7454 42.3276 20.8499 42.0925 21.0197 41.9227C21.1895 41.7529 21.4246 41.6484 21.6728 41.6615L37.347 41.6615C37.8564 41.6484 38.2744 42.0664 38.2613 42.5758Z" fill="white"/>
</svg>
