<svg width="52" height="52" viewBox="0 0 52 52" fill="none" xmlns="http://www.w3.org/2000/svg">
<g clip-path="url(#clip0)">
<path d="M43.7812 15.4375H7.21875C6.53625 15.4375 6 14.9013 6 14.2188C6 13.5362 6.53625 13 7.21875 13H43.7812C44.4637 13 45 13.5362 45 14.2188C45 14.9013 44.4637 15.4375 43.7812 15.4375Z" fill="black"/>
<path d="M43.7812 27.625H7.21875C6.53625 27.625 6 27.0888 6 26.4062C6 25.7237 6.53625 25.1875 7.21875 25.1875H43.7812C44.4637 25.1875 45 25.7237 45 26.4062C45 27.0888 44.4637 27.625 43.7812 27.625Z" fill="black"/>
<path d="M43.7812 39.8125H7.21875C6.53625 39.8125 6 39.2763 6 38.5938C6 37.9112 6.53625 37.375 7.21875 37.375H43.7812C44.4637 37.375 45 37.9112 45 38.5938C45 39.2763 44.4637 39.8125 43.7812 39.8125Z" fill="black"/>
</g>
<defs>
<clipPath id="clip0">
<rect width="39" height="26.8125" fill="white" transform="translate(6 13)"/>
</clipPath>
</defs>
</svg>
