<svg width="24" height="24" viewBox="0 0 24 24" fill="none" xmlns="http://www.w3.org/2000/svg">
<path d="M2.63281 12.0069C2.63281 6.83987 6.83281 2.63281 11.9999 2.63281C14.8446 2.63281 17.4916 3.89634 19.2846 6.11281C20.4069 6.63517 21.2469 8.06105 21.2469 9.45869C21.2469 9.94575 21.2258 10.2422 21.1905 10.4187L21.2187 10.5316L21.1622 10.5175C21.1058 10.6799 21.021 10.6799 20.9222 10.6799H20.8728V10.454L20.8375 10.4469C20.7881 10.4399 20.7387 10.4187 20.6822 10.4046L20.6258 10.3975V10.3834C20.5975 10.3763 20.5693 10.3622 20.541 10.3481C20.414 10.2916 20.2869 10.2422 20.1669 10.2422C17.421 10.2422 15.2681 12.3599 15.2681 15.0705C15.2681 16.7293 16.1152 18.261 17.534 19.1646L17.8375 19.3552L17.5481 19.5669C15.9458 20.7458 14.0258 21.374 11.9928 21.374C6.83281 21.381 2.63281 17.181 2.63281 12.0069ZM14.781 15.0775C14.781 12.1481 17.1952 9.76222 20.1669 9.76222C20.3858 9.76222 20.5693 9.83987 20.7246 9.9034C20.7316 9.9034 20.7316 9.9034 20.7387 9.91046C20.7458 9.74811 20.7528 9.57869 20.7528 9.45869C20.7528 8.2234 20.0116 6.96693 19.0305 6.53634L18.974 6.51516L18.9387 6.46575C17.2446 4.34105 14.7175 3.12693 11.9999 3.12693C7.10811 3.12693 3.11987 7.11517 3.11987 12.014C3.11987 16.9128 7.10811 20.894 11.9999 20.894C13.8069 20.894 15.5222 20.3716 16.9763 19.3834C15.5999 18.374 14.781 16.7858 14.781 15.0775ZM11.7528 6.87517C11.7528 6.21869 12.2893 5.68222 12.9458 5.68222C13.1928 5.68222 13.3975 5.77399 13.5881 5.87281C14.061 6.11987 14.4916 6.61399 14.7175 7.17164L14.8869 7.59517L14.4422 7.5034C14.1952 7.45399 13.9763 7.60222 13.7293 7.77869C13.5246 7.91987 13.2705 8.06811 12.9528 8.06811C12.2893 8.06105 11.7528 7.53164 11.7528 6.87517ZM13.3622 6.3034C13.2069 6.21869 13.0799 6.16928 12.9458 6.16928C12.5575 6.16928 12.2469 6.48693 12.2469 6.86811C12.2469 7.25634 12.5646 7.56693 12.9458 7.56693C13.1293 7.56693 13.2916 7.46811 13.4469 7.36222C13.6375 7.22811 13.8422 7.07987 14.0963 7.0234C13.9058 6.71281 13.6375 6.45164 13.3622 6.3034Z" fill="url(#paint0_linear)"/>
<path d="M11.8799 6.87545C11.8799 6.28957 12.3599 5.80957 12.9458 5.80957C13.1716 5.80957 13.3693 5.90134 13.5316 5.98604C13.9764 6.21898 14.3928 6.69192 14.6046 7.22134L14.6893 7.4331L14.4634 7.38369C14.174 7.32016 13.9199 7.48957 13.6516 7.68016C13.4611 7.81428 13.2281 7.94839 12.9458 7.94839C12.3599 7.94134 11.8799 7.46134 11.8799 6.87545ZM13.4187 6.19781C13.2846 6.12722 13.1222 6.04957 12.9458 6.04957C12.494 6.04957 12.1199 6.41663 12.1199 6.87545C12.1199 7.32722 12.4869 7.70134 12.9458 7.70134C13.1646 7.70134 13.3481 7.59545 13.5175 7.47545C13.7364 7.32016 13.9834 7.14369 14.2869 7.12957C14.0822 6.72016 13.7646 6.37428 13.4187 6.19781Z" fill="url(#paint1_linear)"/>
<path d="M0 12C0 5.38588 5.38588 0 12 0C18.6141 0 24 5.38588 24 12C24 18.6141 18.6141 24 12 24C5.38588 24 0 18.6141 0 12ZM0.487059 12C0.487059 18.3459 5.64706 23.5129 12 23.5129C18.3529 23.5129 23.5129 18.3459 23.5129 12C23.5129 5.65412 18.3459 0.487059 12 0.487059C5.65412 0.487059 0.487059 5.65412 0.487059 12ZM2.63294 12.0353C2.63294 6.88941 6.83294 2.70353 12 2.70353C14.8094 2.70353 17.4565 3.99529 19.2847 6.25412C20.4424 6.79059 21.2471 8.09647 21.2471 9.45177C21.2471 9.93882 21.2259 10.2353 21.1906 10.4118L21.2188 10.5318L21.1624 10.5176C21.12 10.6306 21.0706 10.6659 21.0071 10.68L20.8659 11.1671L20.6824 10.4259L20.5765 10.4047L20.5906 10.3482C20.5482 10.32 20.5059 10.2918 20.4635 10.2635C20.3647 10.1929 20.2447 10.1082 20.1671 10.1082C17.4635 10.1082 15.2682 12.3035 15.2682 15.0071C15.2682 16.6871 16.1153 18.2329 17.5341 19.1365L17.8376 19.3271L17.5482 19.5388C15.9318 20.7318 14.0118 21.36 11.9929 21.36C6.83294 21.3671 2.63294 17.1812 2.63294 12.0353ZM14.7812 15.0071C14.7812 12.0353 17.1953 9.62118 20.1671 9.62118C20.4 9.62118 20.5835 9.74824 20.7388 9.86118C20.7459 9.71294 20.7529 9.56471 20.7529 9.45882C20.7529 8.26588 20.0471 7.12941 19.0306 6.68471L18.9741 6.66353L18.9388 6.61412C17.2024 4.44 14.6753 3.19765 12 3.19765C7.10824 3.19765 3.12 7.16471 3.12 12.0353C3.12 16.9059 7.10824 20.88 12 20.88C13.7929 20.88 15.5082 20.3506 16.9765 19.3553C15.6 18.3318 14.7812 16.7365 14.7812 15.0071Z" fill="url(#paint2_linear)"/>
<defs>
<linearGradient id="paint0_linear" x1="2.63281" y1="21.374" x2="21.8479" y2="19.1458" gradientUnits="userSpaceOnUse">
<stop stop-color="#FF6B6B"/>
<stop offset="1" stop-color="#277C89"/>
</linearGradient>
<linearGradient id="paint1_linear" x1="11.8799" y1="7.94839" x2="14.7515" y2="7.50801" gradientUnits="userSpaceOnUse">
<stop stop-color="#FF6B6B"/>
<stop offset="1" stop-color="#277C89"/>
</linearGradient>
<linearGradient id="paint2_linear" x1="0" y1="24" x2="24.7703" y2="21.108" gradientUnits="userSpaceOnUse">
<stop stop-color="#FF6B6B"/>
<stop offset="1" stop-color="#277C89"/>
</linearGradient>
</defs>
</svg>
