<svg width="52" height="52" viewBox="0 0 52 52" fill="none" xmlns="http://www.w3.org/2000/svg">
<g clip-path="url(#clip0)">
<path d="M28.0912 12.5703C28.5222 12.5703 28.8997 12.7392 29.2553 12.9242C30.274 13.4533 31.0901 14.5017 31.498 15.5152C30.7087 15.3509 30.0927 15.7906 29.4961 16.2096C29.086 16.4979 28.6321 16.752 28.0912 16.752C27.5367 16.752 27.0049 16.5317 26.6128 16.1396C26.2206 15.7475 26.0004 15.2157 26.0004 14.6611C26.0004 14.1066 26.2206 13.5748 26.6128 13.1827C27.0049 12.7906 27.5367 12.5703 28.0912 12.5703Z" fill="black"/>
<path d="M26 0C40.3593 0 52 11.6407 52 26C52 40.3593 40.3593 52 26 52C11.6407 52 0 40.3595 0 26C0 11.6405 11.6407 0 26 0ZM26 46.1747C30.3041 46.1811 34.4964 44.8046 37.9589 42.248C35.8831 40.9251 34.2923 38.9646 33.4254 36.6607C32.5586 34.3568 32.4624 31.8339 33.1513 29.4707C33.8402 27.1075 35.2771 25.0315 37.2462 23.5544C39.2154 22.0773 41.6105 21.2787 44.072 21.2786C44.6767 21.2786 45.1994 21.4202 45.6516 21.511C45.6409 21.4647 45.6289 21.4665 45.6178 21.4665H45.7262C45.8404 20.9274 45.8988 20.3779 45.9003 19.8269C45.901 18.4797 45.5109 17.1612 44.7772 16.0313C44.0436 14.9014 42.9979 14.0086 41.767 13.4611C39.6424 10.79 36.8744 8.70197 33.7225 7.39263C30.5706 6.08329 27.1379 5.59552 23.7461 5.97498C20.3542 6.35444 17.1141 7.58873 14.3295 9.56221C11.5448 11.5357 9.30675 14.1838 7.82489 17.2583C6.34303 20.3329 5.66592 23.7333 5.85699 27.141C6.04805 30.5487 7.10104 33.8521 8.9173 36.7418C10.7336 39.6314 13.2536 42.0127 16.2414 43.6625C19.2292 45.3124 22.587 46.1767 26 46.1747Z" fill="black"/>
</g>
<defs>
<clipPath id="clip0">
<rect width="52" height="52" fill="white"/>
</clipPath>
</defs>
</svg>
